<?xml version="1.0" encoding="utf-8"?>
<!-- Generator: Adobe Illustrator 27.0.0, SVG Export Plug-In . SVG Version: 6.00 Build 0)  -->
<svg version="1.1" id="katman_1" xmlns="http://www.w3.org/2000/svg" xmlns:xlink="http://www.w3.org/1999/xlink" x="0px" y="0px"
	 viewBox="0 0 841.89 595.28" style="enable-background:new 0 0 841.89 595.28;" xml:space="preserve">
<style type="text/css">
	.st0{fill-rule:evenodd;clip-rule:evenodd;fill:#CDBDB2;}
	.st1{fill-rule:evenodd;clip-rule:evenodd;fill:#393939;}
	.st2{fill-rule:evenodd;clip-rule:evenodd;fill:#F89C35;}
	.st3{fill-rule:evenodd;clip-rule:evenodd;fill:#F89D35;}
	.st4{fill-rule:evenodd;clip-rule:evenodd;fill:#D87C30;}
	.st5{fill-rule:evenodd;clip-rule:evenodd;fill:#EA8D3A;}
	.st6{fill-rule:evenodd;clip-rule:evenodd;fill:#EB8F35;}
	.st7{fill-rule:evenodd;clip-rule:evenodd;fill:#EA8E3A;}
	.st8{fill-rule:evenodd;clip-rule:evenodd;fill:#E8821E;}
	.st9{fill-rule:evenodd;clip-rule:evenodd;fill:#DFCEC3;}
	.st10{fill-rule:evenodd;clip-rule:evenodd;fill:#E88F35;}
	.st11{fill-rule:evenodd;clip-rule:evenodd;fill:#8E5A30;}
</style>
<g>
	<path class="st0" d="M333,450.8l53.4,14.17v-18.53l4.36-4.36h30.52v37.06h-32.7l-40.33-17.44L333,450.8z M333,450.8"/>
	<path class="st0" d="M507.38,450.8l-52.32,14.17v-18.53l-4.36-4.36h-30.52v37.06h32.7l40.33-17.44L507.38,450.8z M507.38,450.8"/>
	<path class="st1" d="M390.76,410.47l-4.36,35.97l5.45-4.36h56.67l6.54,4.36l-4.36-35.97l-8.72-5.45l-43.6,1.09L390.76,410.47z
		 M390.76,410.47"/>
	<path class="st2" d="M361.33,167.43l26.16,61.03l11.99,177.65h42.51l13.08-177.65l23.98-61.03H361.33z M361.33,167.43"/>
	<path class="st3" d="M246.89,301.48l-30.52,88.28l76.29-4.36h49.04v-38.15l-2.18-78.47l-10.9,8.72L246.89,301.48z M246.89,301.48"
		/>
	<polygon class="st4" points="304.66,311.29 394.03,313.47 384.22,359.25 341.72,348.35 	"/>
	<path class="st5" d="M304.66,312.38l37.06,34.88v34.88L304.66,312.38z M304.66,312.38"/>
	<path class="st3" d="M341.72,348.35l43.6,10.9l14.17,46.87l-9.81,5.45l-47.96-28.34V348.35z M341.72,348.35"/>
	<path class="st6" d="M341.72,383.23L333,450.8l57.76-40.33L341.72,383.23z M341.72,383.23"/>
	<path class="st7" d="M394.03,313.47l5.45,92.64l-16.35-47.41L394.03,313.47z M394.03,313.47"/>
	<path class="st4" d="M291.58,384.32l50.14-1.09L333,450.8L291.58,384.32z M291.58,384.32"/>
	<polygon class="st6" points="240.36,480.23 333,450.8 291.58,384.32 216.38,389.77 	"/>
	<polygon class="st8" points="387.49,228.46 340.63,267.7 304.66,311.29 394.03,314.56 	"/>
	<path class="st9" d="M333,450.8l57.76-40.33l-4.36,34.88v19.62l-39.24-7.63L333,450.8z M333,450.8"/>
	<path class="st9" d="M507.38,450.8l-56.67-40.33l4.36,34.88v19.62l39.24-7.63L507.38,450.8z M507.38,450.8"/>
	<path class="st1" d="M370.05,333.09l11.99,25.07l-42.51-10.9L370.05,333.09z M370.05,333.09"/>
	<path class="st10" d="M239.26,116.2l148.23,112.26l-25.07-61.03L239.26,116.2z M239.26,116.2"/>
	<path class="st11" d="M239.26,116.2l-19.62,59.95l10.9,65.39l-7.63,4.36l10.9,9.81l-8.72,7.63l11.99,10.9l-7.63,6.54l17.44,21.8
		l81.74-25.07c39.96-31.97,59.58-48.32,58.85-49.04C386.76,227.73,337.36,190.31,239.26,116.2L239.26,116.2z M239.26,116.2"/>
	<path class="st3" d="M593.48,301.48L624,389.77l-76.29-4.36h-49.04v-38.15l2.18-78.47l10.9,8.72L593.48,301.48z M593.48,301.48"/>
	<polygon class="st4" points="535.72,311.29 446.35,313.47 456.15,359.25 498.66,348.35 	"/>
	<path class="st5" d="M535.72,312.38l-37.06,34.88v34.88L535.72,312.38z M535.72,312.38"/>
	<path class="st3" d="M498.66,348.35l-43.6,10.9l-14.17,46.87l9.81,5.45l47.96-28.34V348.35z M498.66,348.35"/>
	<path class="st6" d="M498.66,383.23l8.72,67.57l-56.67-39.24L498.66,383.23z M498.66,383.23"/>
	<path class="st7" d="M446.35,313.47l-5.45,92.64l16.35-47.41L446.35,313.47z M446.35,313.47"/>
	<path class="st4" d="M548.8,384.32l-50.14-1.09l8.72,67.57L548.8,384.32z M548.8,384.32"/>
	<polygon class="st6" points="600.02,480.23 507.38,450.8 548.8,384.32 624,389.77 	"/>
	<polygon class="st8" points="452.88,228.46 499.75,267.7 535.72,311.29 446.35,314.56 	"/>
	<path class="st1" d="M470.32,333.09l-11.99,25.07l42.51-10.9L470.32,333.09z M470.32,333.09"/>
	<path class="st10" d="M601.11,116.2L452.88,228.46l25.07-61.03L601.11,116.2z M601.11,116.2"/>
	<path class="st11" d="M601.11,116.2l19.62,59.95l-10.9,65.39l7.63,4.36l-10.9,9.81l8.72,7.63l-11.99,10.9l7.63,6.54l-17.44,21.8
		l-81.74-25.07c-39.96-31.97-59.58-48.32-58.85-49.04C453.61,227.73,503.02,190.31,601.11,116.2L601.11,116.2z M601.11,116.2"/>
</g>
</svg>
