<svg width="48" height="18" viewBox="0 0 48 18" fill="none" xmlns="http://www.w3.org/2000/svg">
    <path fill-rule="evenodd" clip-rule="evenodd" d="M8.70802 15.6557C12.2348 15.6557 15.0939 12.7966 15.0939 9.26979C15.0939 5.74296 12.2348 2.88391 8.70802 2.88391C5.1812 2.88391 2.32214 5.74296 2.32214 9.26979C2.32214 12.7966 5.1812 15.6557 8.70802 15.6557ZM8.70802 17.9778C13.5173 17.9778 17.416 14.0791 17.416 9.26979C17.416 4.46048 13.5173 0.561768 8.70802 0.561768C3.89871 0.561768 0 4.46048 0 9.26979C0 14.0791 3.89871 17.9778 8.70802 17.9778Z" fill="#FFFFFF" />
    <path fill-rule="evenodd" clip-rule="evenodd" d="M16.3296 15.6556C19.8564 15.6556 22.7155 12.7966 22.7155 9.26973C22.7155 5.7429 19.8564 2.88385 16.3296 2.88385C12.8028 2.88385 9.94372 5.7429 9.94372 9.26973C9.94372 12.7966 12.8028 15.6556 16.3296 15.6556ZM16.3296 17.9777C21.1389 17.9777 25.0376 14.079 25.0376 9.26973C25.0376 4.46042 21.1389 0.561707 16.3296 0.561707C11.5203 0.561707 7.62158 4.46042 7.62158 9.26973C7.62158 14.079 11.5203 17.9777 16.3296 17.9777Z" fill="#FFFFFF" />
    <path fill-rule="evenodd" clip-rule="evenodd" d="M23.9509 15.6556C27.4778 15.6556 30.3368 12.7966 30.3368 9.26973C30.3368 5.7429 27.4778 2.88385 23.9509 2.88385C20.4241 2.88385 17.5651 5.7429 17.5651 9.26973C17.5651 12.7966 20.4241 15.6556 23.9509 15.6556ZM23.9509 17.9777C28.7602 17.9777 32.659 14.079 32.659 9.26973C32.659 4.46042 28.7602 0.561707 23.9509 0.561707C19.1416 0.561707 15.2429 4.46042 15.2429 9.26973C15.2429 14.079 19.1416 17.9777 23.9509 17.9777Z" fill="#FFFFFF" />
    <path fill-rule="evenodd" clip-rule="evenodd" d="M31.5723 15.6556C35.0991 15.6556 37.9582 12.7966 37.9582 9.26973C37.9582 5.7429 35.0991 2.88385 31.5723 2.88385C28.0455 2.88385 25.1864 5.7429 25.1864 9.26973C25.1864 12.7966 28.0455 15.6556 31.5723 15.6556ZM31.5723 17.9777C36.3816 17.9777 40.2803 14.079 40.2803 9.26973C40.2803 4.46042 36.3816 0.561707 31.5723 0.561707C26.763 0.561707 22.8643 4.46042 22.8643 9.26973C22.8643 14.079 26.763 17.9777 31.5723 17.9777Z" fill="#FFFFFF" />
    <path fill-rule="evenodd" clip-rule="evenodd" d="M39.1941 15.6556C42.7209 15.6556 45.58 12.7965 45.58 9.26973C45.58 5.7429 42.7209 2.88384 39.1941 2.88384C35.6673 2.88384 32.8082 5.7429 32.8082 9.26973C32.8082 12.7965 35.6673 15.6556 39.1941 15.6556ZM39.1941 17.9777C44.0034 17.9777 47.9021 14.079 47.9021 9.26973C47.9021 4.46042 44.0034 0.561707 39.1941 0.561707C34.3848 0.561707 30.4861 4.46042 30.4861 9.26973C30.4861 14.079 34.3848 17.9777 39.1941 17.9777Z" fill="#FFFFFF" />
</svg>