<svg width="159" height="25" viewBox="0 0 159 25" fill="none" xmlns="http://www.w3.org/2000/svg">
<path fill-rule="evenodd" clip-rule="evenodd" d="M8.70802 18.6557C12.2348 18.6557 15.0939 15.7966 15.0939 12.2698C15.0939 8.74296 12.2348 5.88391 8.70802 5.88391C5.1812 5.88391 2.32214 8.74296 2.32214 12.2698C2.32214 15.7966 5.1812 18.6557 8.70802 18.6557ZM8.70802 20.9778C13.5173 20.9778 17.416 17.0791 17.416 12.2698C17.416 7.46048 13.5173 3.56177 8.70802 3.56177C3.89871 3.56177 0 7.46048 0 12.2698C0 17.0791 3.89871 20.9778 8.70802 20.9778Z" fill="#1D3557"/>
<path fill-rule="evenodd" clip-rule="evenodd" d="M16.3296 18.6555C19.8564 18.6555 22.7155 15.7965 22.7155 12.2697C22.7155 8.74284 19.8564 5.88378 16.3296 5.88378C12.8028 5.88378 9.94372 8.74284 9.94372 12.2697C9.94372 15.7965 12.8028 18.6555 16.3296 18.6555ZM16.3296 20.9777C21.1389 20.9777 25.0376 17.079 25.0376 12.2697C25.0376 7.46036 21.1389 3.56165 16.3296 3.56165C11.5203 3.56165 7.62158 7.46036 7.62158 12.2697C7.62158 17.079 11.5203 20.9777 16.3296 20.9777Z" fill="#1D3557"/>
<path fill-rule="evenodd" clip-rule="evenodd" d="M23.9509 18.6555C27.4778 18.6555 30.3368 15.7965 30.3368 12.2697C30.3368 8.74284 27.4778 5.88378 23.9509 5.88378C20.4241 5.88378 17.5651 8.74284 17.5651 12.2697C17.5651 15.7965 20.4241 18.6555 23.9509 18.6555ZM23.9509 20.9777C28.7602 20.9777 32.659 17.079 32.659 12.2697C32.659 7.46036 28.7602 3.56165 23.9509 3.56165C19.1416 3.56165 15.2429 7.46036 15.2429 12.2697C15.2429 17.079 19.1416 20.9777 23.9509 20.9777Z" fill="#1D3557"/>
<path fill-rule="evenodd" clip-rule="evenodd" d="M31.5723 18.6555C35.0991 18.6555 37.9582 15.7965 37.9582 12.2697C37.9582 8.74284 35.0991 5.88378 31.5723 5.88378C28.0455 5.88378 25.1864 8.74284 25.1864 12.2697C25.1864 15.7965 28.0455 18.6555 31.5723 18.6555ZM31.5723 20.9777C36.3816 20.9777 40.2803 17.079 40.2803 12.2697C40.2803 7.46036 36.3816 3.56165 31.5723 3.56165C26.763 3.56165 22.8643 7.46036 22.8643 12.2697C22.8643 17.079 26.763 20.9777 31.5723 20.9777Z" fill="#1D3557"/>
<path fill-rule="evenodd" clip-rule="evenodd" d="M39.1941 18.6555C42.7209 18.6555 45.58 15.7965 45.58 12.2697C45.58 8.74284 42.7209 5.88378 39.1941 5.88378C35.6673 5.88378 32.8082 8.74284 32.8082 12.2697C32.8082 15.7965 35.6673 18.6555 39.1941 18.6555ZM39.1941 20.9777C44.0034 20.9777 47.9021 17.079 47.9021 12.2697C47.9021 7.46036 44.0034 3.56165 39.1941 3.56165C34.3848 3.56165 30.4861 7.46036 30.4861 12.2697C30.4861 17.079 34.3848 20.9777 39.1941 20.9777Z" fill="#1D3557"/>
<path d="M151.751 24.2315C150.602 24.2315 149.562 24.0256 148.63 23.6138C147.719 23.202 146.928 22.6169 146.256 21.8583C145.606 21.0781 145.097 20.1569 144.728 19.095C144.382 18.0113 144.208 16.7976 144.208 15.4538C144.208 14.1318 144.382 12.9289 144.728 11.8452C145.097 10.7616 145.606 9.84045 146.256 9.08188C146.928 8.30165 147.719 7.70563 148.63 7.29384C149.562 6.88204 150.602 6.67615 151.751 6.67615C152.878 6.67615 153.885 6.88204 154.774 7.29384C155.663 7.70563 156.421 8.27997 157.05 9.01686C157.678 9.73208 158.155 10.5882 158.48 11.5852C158.827 12.5821 159 13.6766 159 14.8687V16.104H146.939V16.8843C146.939 17.5995 147.047 18.2714 147.264 18.8999C147.503 19.5067 147.828 20.0377 148.239 20.4929C148.673 20.948 149.193 21.3056 149.8 21.5657C150.428 21.8258 151.133 21.9558 151.913 21.9558C152.975 21.9558 153.896 21.7066 154.676 21.2081C155.478 20.7096 156.096 19.9944 156.53 19.0624L158.383 20.3953C157.841 21.544 156.995 22.476 155.847 23.1912C154.698 23.8848 153.333 24.2315 151.751 24.2315ZM151.751 8.85431C151.035 8.85431 150.385 8.98435 149.8 9.24443C149.215 9.48284 148.705 9.82961 148.272 10.2848C147.86 10.7399 147.535 11.2817 147.297 11.9102C147.058 12.5171 146.939 13.189 146.939 13.9259V14.1534H156.204V13.7958C156.204 12.3004 155.793 11.1083 154.969 10.2197C154.167 9.30945 153.094 8.85431 151.751 8.85431Z" fill="#1D3557"/>
<path d="M140.736 24.0364C139.826 24.0364 139.133 23.7871 138.656 23.2886C138.201 22.7685 137.973 22.0966 137.973 21.273V9.53693H135.21V7.26123H136.77C137.334 7.26123 137.713 7.15286 137.908 6.93613C138.125 6.69772 138.233 6.29677 138.233 5.73326V2.6123H140.574V7.26123H144.247V9.53693H140.574V21.7607H143.987V24.0364H140.736Z" fill="#1D3557"/>
<path d="M134.22 23.8415C133.245 23.8415 132.541 23.5814 132.107 23.0613C131.695 22.5411 131.435 21.8909 131.327 21.1107H131.164C130.796 22.151 130.189 22.9312 129.344 23.4514C128.498 23.9716 127.491 24.2316 126.32 24.2316C124.543 24.2316 123.156 23.7765 122.159 22.8662C121.184 21.956 120.696 20.7206 120.696 19.1601C120.696 17.5779 121.27 16.3642 122.419 15.519C123.589 14.6737 125.399 14.2511 127.848 14.2511H131.164V12.5931C131.164 11.4011 130.839 10.4908 130.189 9.86224C129.539 9.23372 128.542 8.91946 127.198 8.91946C126.179 8.91946 125.323 9.14703 124.63 9.60217C123.958 10.0573 123.394 10.6642 122.939 11.4227L121.379 9.95977C121.834 9.0495 122.56 8.28009 123.557 7.65157C124.554 7.00137 125.811 6.67627 127.328 6.67627C129.365 6.67627 130.948 7.17476 132.075 8.17173C133.202 9.1687 133.765 10.5558 133.765 12.333V21.5658H135.683V23.8415H134.22ZM126.743 22.021C127.393 22.021 127.989 21.9451 128.531 21.7934C129.073 21.6417 129.539 21.425 129.929 21.1432C130.319 20.8614 130.622 20.5363 130.839 20.1679C131.056 19.7995 131.164 19.3985 131.164 18.965V16.2017H127.718C126.223 16.2017 125.128 16.4184 124.435 16.8519C123.763 17.2854 123.427 17.9139 123.427 18.7375V19.4202C123.427 20.2438 123.719 20.8831 124.305 21.3383C124.911 21.7934 125.724 22.021 126.743 22.021Z" fill="#1D3557"/>
<path d="M112.79 24.2315C111.619 24.2315 110.568 24.0256 109.636 23.6138C108.704 23.202 107.913 22.6169 107.263 21.8583C106.634 21.0997 106.147 20.1786 105.8 19.095C105.475 18.0113 105.312 16.7976 105.312 15.4538C105.312 14.1101 105.475 12.8964 105.8 11.8127C106.147 10.7291 106.634 9.80794 107.263 9.04938C107.913 8.29081 108.704 7.70563 109.636 7.29384C110.568 6.88204 111.619 6.67615 112.79 6.67615C114.458 6.67615 115.791 7.04459 116.788 7.78149C117.807 8.4967 118.565 9.43949 119.064 10.6099L116.886 11.7152C116.582 10.8483 116.084 10.1764 115.39 9.69957C114.697 9.22276 113.83 8.98435 112.79 8.98435C112.009 8.98435 111.327 9.11439 110.741 9.37447C110.156 9.61288 109.669 9.95965 109.278 10.4148C108.888 10.8483 108.596 11.3793 108.401 12.0078C108.206 12.6146 108.108 13.2865 108.108 14.0234V16.8843C108.108 18.3581 108.498 19.5718 109.278 20.5254C110.08 21.4573 111.251 21.9233 112.79 21.9233C114.892 21.9233 116.409 20.948 117.341 18.9974L119.227 20.2653C118.685 21.479 117.872 22.4435 116.788 23.1587C115.726 23.8739 114.393 24.2315 112.79 24.2315Z" fill="#1D3557"/>
<path d="M96.6319 24.2315C95.5049 24.2315 94.4755 24.0256 93.5435 23.6138C92.6115 23.202 91.8096 22.6169 91.1378 21.8583C90.4876 21.0781 89.9782 20.1569 89.6098 19.095C89.2413 18.0113 89.0571 16.7976 89.0571 15.4538C89.0571 14.1318 89.2413 12.9289 89.6098 11.8452C89.9782 10.7616 90.4876 9.84045 91.1378 9.08188C91.8096 8.30165 92.6115 7.70563 93.5435 7.29384C94.4755 6.88204 95.5049 6.67615 96.6319 6.67615C97.759 6.67615 98.7776 6.88204 99.6879 7.29384C100.62 7.70563 101.422 8.30165 102.094 9.08188C102.765 9.84045 103.286 10.7616 103.654 11.8452C104.023 12.9289 104.207 14.1318 104.207 15.4538C104.207 16.7976 104.023 18.0113 103.654 19.095C103.286 20.1569 102.765 21.0781 102.094 21.8583C101.422 22.6169 100.62 23.202 99.6879 23.6138C98.7776 24.0256 97.759 24.2315 96.6319 24.2315ZM96.6319 21.9233C98.0407 21.9233 99.1894 21.4899 100.078 20.6229C100.967 19.756 101.411 18.4339 101.411 16.6567V14.251C101.411 12.4738 100.967 11.1517 100.078 10.2848C99.1894 9.41782 98.0407 8.98435 96.6319 8.98435C95.2232 8.98435 94.0745 9.41782 93.1859 10.2848C92.2973 11.1517 91.853 12.4738 91.853 14.251V16.6567C91.853 18.4339 92.2973 19.756 93.1859 20.6229C94.0745 21.4899 95.2232 21.9233 96.6319 21.9233Z" fill="#1D3557"/>
<path d="M80.7902 24.0574C79.8799 24.0574 79.1864 23.8081 78.7096 23.3096C78.2544 22.7895 78.0269 22.1393 78.0269 21.359V0H80.6277V21.7817H83.0984V24.0574H80.7902Z" fill="#1D3557"/>
<path d="M86.8862 24.0574C85.9759 24.0574 85.2823 23.8081 84.8055 23.3096C84.3504 22.7895 84.1228 22.1393 84.1228 21.359V0H86.7236V21.7817H89.1944V24.0574H86.8862Z" fill="#1D3557"/>
<path d="M73.6102 24.1432L71.3345 17.4462H62.1667L59.891 24.1432H57.1277L65.0601 1.45129H68.5387L76.4711 24.1432H73.6102ZM66.8156 3.98707H66.6531L62.8169 15.0404H70.6518L66.8156 3.98707Z" fill="#1D3557"/>
</svg>
