<svg width="163" height="32" viewBox="0 0 1051 197" fill="black" xmlns="http://www.w3.org/2000/svg">
    <path d="M345.593 160.311C369.275 160.311 385.967 146.767 385.967 126.035C386.134 108.148 375.408 97.778 357.518 91.2595L345.252 86.745C332.819 82.2305 326.853 78.3864 326.853 69.6926C326.853 60.9988 335.711 55.9851 345.935 55.9851C355.476 55.9851 362.801 59.8292 368.934 67.0182L382.733 53.8098C373.875 43.2759 361.1 37.5918 346.109 37.5918C323.619 37.5918 306.761 50.301 306.761 71.0336C306.761 87.2516 316.127 97.6141 335.377 104.475L348.667 109.154C360.25 113.333 365.875 118.682 365.875 127.212C365.875 136.07 357.7 141.925 346.284 141.925C334.527 141.925 324.477 136.241 318.177 126.713L302.503 138.915C309.645 151.781 326.17 160.311 345.593 160.311ZM440.215 159.976C458.106 159.976 471.389 152.615 479.055 140.584L464.747 130.549C460.147 137.91 452.481 143.259 440.39 143.259C426.082 143.259 415.007 134.401 414.157 120.522H481.105C481.272 117.848 481.272 116.343 481.272 114.503C481.272 87.5868 462.705 73.0375 440.215 73.0375C414.324 73.0375 395.751 91.93 395.751 116.507C395.751 142.081 414.317 159.976 440.215 159.976ZM415 107.142C417.725 94.7683 428.458 88.5851 439.532 88.5851C450.432 88.5851 460.314 95.1036 462.356 107.142H415ZM578.618 193.246V74.7063H559.878V85.9106C555.111 79.2208 544.887 73.0375 532.621 73.0375C509.28 73.0375 491.564 92.6005 491.564 116.507C491.564 140.413 509.28 159.976 532.621 159.976C544.887 159.976 555.111 153.792 559.878 147.103V193.246H578.618ZM536.029 143.251C521.038 143.251 510.646 131.548 510.646 116.499C510.646 101.451 521.038 89.7472 536.029 89.7472C551.02 89.7472 561.411 101.451 561.411 116.499C561.411 131.548 551.02 143.251 536.029 143.251ZM627.106 159.976C638.005 159.976 647.038 155.461 651.979 146.931V158.299H670.72V74.7063H651.979V115.836C651.979 133.894 643.463 143.259 631.197 143.259C620.297 143.259 614.164 135.064 614.164 121.692V74.7063H595.423V124.701C595.423 146.097 607.515 159.976 627.106 159.976ZM729.325 159.976C747.216 159.976 760.499 152.615 768.165 140.584L753.858 130.549C749.258 137.91 741.592 143.259 729.5 143.259C715.192 143.259 704.118 134.401 703.268 120.522H770.215C770.382 117.848 770.382 116.343 770.382 114.503C770.382 87.5868 751.816 73.0375 729.325 73.0375C703.435 73.0375 684.861 91.93 684.861 116.507C684.861 142.081 703.427 159.976 729.325 159.976ZM704.11 107.142C706.835 94.7683 717.568 88.5851 728.642 88.5851C739.542 88.5851 749.425 95.1036 751.467 107.142H704.11ZM784.53 158.299H803.271V117.17C803.271 99.1115 812.812 89.7472 825.245 89.7472C836.145 89.7472 842.961 97.6067 842.961 110.979V158.292H861.702V107.969C861.702 86.7375 848.927 73.0226 829.162 73.0226C818.087 73.0226 808.546 77.5372 803.271 86.0671V74.7063H784.53V158.299V158.299ZM919.404 159.976C937.12 159.976 951.769 150.947 959.094 136.904L942.737 128.21C938.646 136.74 930.304 142.923 919.396 142.923C904.238 142.923 893.506 131.384 893.506 116.507C893.506 101.63 904.238 90.0899 919.396 90.0899C930.296 90.0899 938.646 96.2732 942.737 104.803L959.094 96.1093C951.769 82.0666 937.12 73.0375 919.404 73.0375C893.855 73.0375 874.431 91.7661 874.431 116.507C874.431 141.247 893.855 159.976 919.404 159.976ZM1009.62 159.976C1027.51 159.976 1040.79 152.615 1048.46 140.584L1034.15 130.549C1029.55 137.91 1021.88 143.259 1009.79 143.259C995.475 143.259 984.408 134.401 983.55 120.522H1050.51C1050.67 117.848 1050.67 116.343 1050.67 114.503C1050.67 87.5868 1032.11 73.0375 1009.62 73.0375C983.717 73.0375 965.151 91.93 965.151 116.507C965.151 142.081 983.717 159.976 1009.62 159.976ZM984.4 107.142C987.125 94.7683 997.858 88.5851 1008.93 88.5851C1019.83 88.5851 1029.72 95.1036 1031.76 107.142H984.4Z" fill="black"></path>
    <g clip-path="url(#clip0_101_9)">
        <path d="M0.534424 42.209L0.534424 154.588C0.534424 177.525 19.0332 196.119 41.8525 196.119H202.264C225.083 196.119 243.582 177.525 243.582 154.588V42.209C243.582 19.2719 225.083 0.677673 202.264 0.677673H41.8525C19.0332 0.677673 0.534424 19.2719 0.534424 42.209Z" fill="#111111"></path>
        <path d="M0.534424 42.209L0.534424 154.588C0.534424 177.525 19.0332 196.119 41.8525 196.119H202.264C225.083 196.119 243.582 177.525 243.582 154.588V42.209C243.582 19.2719 225.083 0.677673 202.264 0.677673H41.8525C19.0332 0.677673 0.534424 19.2719 0.534424 42.209Z" fill="url(#paint0_linear_101_9)"></path>
        <path d="M61.2962 49.5381C61.2962 42.7919 55.8554 37.323 49.1438 37.323C42.4323 37.323 36.9915 42.7919 36.9915 49.5381C36.9915 56.2843 42.4323 61.7532 49.1438 61.7532C55.8554 61.7532 61.2962 56.2843 61.2962 49.5381Z" fill="url(#paint1_linear_101_9)"></path>
        <path d="M61.2962 49.5381C61.2962 42.7919 55.8554 37.323 49.1438 37.323C42.4323 37.323 36.9915 42.7919 36.9915 49.5381C36.9915 56.2843 42.4323 61.7532 49.1438 61.7532C55.8554 61.7532 61.2962 56.2843 61.2962 49.5381Z" fill="url(#paint2_linear_101_9)"></path>
        <path d="M61.2962 49.5381C61.2962 42.7919 55.8554 37.323 49.1438 37.323C42.4323 37.323 36.9915 42.7919 36.9915 49.5381C36.9915 56.2843 42.4323 61.7532 49.1438 61.7532C55.8554 61.7532 61.2962 56.2843 61.2962 49.5381Z" fill="url(#paint3_linear_101_9)"></path>
        <path d="M61.2962 147.181C61.2962 140.435 55.8554 134.966 49.1438 134.966C42.4323 134.966 36.9915 140.435 36.9915 147.181C36.9915 153.927 42.4323 159.396 49.1438 159.396C55.8554 159.396 61.2962 153.927 61.2962 147.181Z" fill="url(#paint4_linear_101_9)"></path>
        <path d="M207.125 98.3987C207.125 91.6525 201.684 86.1836 194.972 86.1836C188.261 86.1836 182.82 91.6525 182.82 98.3987C182.82 105.145 188.261 110.614 194.972 110.614C201.684 110.614 207.125 105.145 207.125 98.3987Z" fill="url(#paint5_linear_101_9)"></path>
        <path d="M207.125 98.3987C207.125 91.6525 201.684 86.1836 194.972 86.1836C188.261 86.1836 182.82 91.6525 182.82 98.3987C182.82 105.145 188.261 110.614 194.972 110.614C201.684 110.614 207.125 105.145 207.125 98.3987Z" fill="url(#paint6_linear_101_9)"></path>
        <path d="M194.973 37.323H97.7535C91.0419 37.323 85.6011 42.7919 85.6011 49.5381C85.6011 56.2843 91.0419 61.7532 97.7535 61.7532H194.973C201.684 61.7532 207.125 56.2843 207.125 49.5381C207.125 42.7919 201.684 37.323 194.973 37.323Z" fill="url(#paint7_linear_101_9)"></path>
        <path d="M194.973 134.966H97.7535C91.0419 134.966 85.6011 140.435 85.6011 147.181C85.6011 153.927 91.0419 159.396 97.7535 159.396H194.973C201.684 159.396 207.125 153.927 207.125 147.181C207.125 140.435 201.684 134.966 194.973 134.966Z" fill="url(#paint8_linear_101_9)"></path>
        <path d="M146.363 86.1836H49.144C42.4324 86.1836 36.9916 91.6525 36.9916 98.3987C36.9916 105.145 42.4324 110.614 49.144 110.614H146.363C153.075 110.614 158.515 105.145 158.515 98.3987C158.515 91.6525 153.075 86.1836 146.363 86.1836Z" fill="url(#paint9_linear_101_9)"></path>
    </g>
    <defs>
        <linearGradient id="paint0_linear_101_9" x1="122.058" y1="0.677714" x2="122.058" y2="196.322" gradientUnits="userSpaceOnUse">
            <stop stop-color="#1D273D"></stop>
            <stop offset="1" stop-color="#0D0F13"></stop>
        </linearGradient>
        <linearGradient id="paint1_linear_101_9" x1="40.7354" y1="61.5859" x2="57.3579" y2="39.4758" gradientUnits="userSpaceOnUse">
            <stop stop-color="#4462FE"></stop>
            <stop offset="1" stop-color="#7D69FA"></stop>
        </linearGradient>
        <linearGradient id="paint2_linear_101_9" x1="39.1273" y1="61.7651" x2="59.5398" y2="60.7241" gradientUnits="userSpaceOnUse">
            <stop stop-color="#3757FD"></stop>
            <stop offset="1" stop-color="#6980FA"></stop>
        </linearGradient>
        <linearGradient id="paint3_linear_101_9" x1="39.1273" y1="61.7651" x2="59.5398" y2="60.7241" gradientUnits="userSpaceOnUse">
            <stop stop-color="#2447FF"></stop>
            <stop offset="1" stop-color="#6980FA"></stop>
        </linearGradient>
        <linearGradient id="paint4_linear_101_9" x1="40.4286" y1="155.409" x2="56.7344" y2="138.222" gradientUnits="userSpaceOnUse">
            <stop stop-color="#BC3EE6"></stop>
            <stop offset="1" stop-color="#D972F1"></stop>
        </linearGradient>
        <linearGradient id="paint5_linear_101_9" x1="187.73" y1="106.498" x2="202.805" y2="90.5382" gradientUnits="userSpaceOnUse">
            <stop stop-color="#29BDFF"></stop>
            <stop offset="1" stop-color="#96E7FB"></stop>
        </linearGradient>
        <linearGradient id="paint6_linear_101_9" x1="184.772" y1="110.446" x2="205.878" y2="109.439" gradientUnits="userSpaceOnUse">
            <stop stop-color="#23BBFF"></stop>
            <stop offset="1" stop-color="#85E7FF"></stop>
        </linearGradient>
        <linearGradient id="paint7_linear_101_9" x1="95.3597" y1="61.5859" x2="195.428" y2="37.7007" gradientUnits="userSpaceOnUse">
            <stop stop-color="#23BBFF"></stop>
            <stop offset="1" stop-color="#85E7FF"></stop>
        </linearGradient>
        <linearGradient id="paint8_linear_101_9" x1="96.2804" y1="159.408" x2="192.362" y2="134.91" gradientUnits="userSpaceOnUse">
            <stop stop-color="#2447FF"></stop>
            <stop offset="1" stop-color="#6980FA"></stop>
        </linearGradient>
        <linearGradient id="paint9_linear_101_9" x1="53.3176" y1="110.805" x2="145.104" y2="86.3056" gradientUnits="userSpaceOnUse">
            <stop stop-color="#6634FF"></stop>
            <stop offset="1" stop-color="#9C6DFF"></stop>
        </linearGradient>
        <clipPath id="clip0_101_9">
            <rect width="243.048" height="195.442" fill="black" transform="translate(0.534424 0.677734)"></rect>
        </clipPath>
    </defs>
</svg>