<?xml version="1.0" encoding="UTF-8"?>
<svg width="167px" height="40px" viewBox="0 0 167 40" version="1.1" xmlns="http://www.w3.org/2000/svg" xmlns:xlink="http://www.w3.org/1999/xlink">
    <title>Logo/Full/Light</title>
    <g id="Website-Desktop-" stroke="none" stroke-width="1" fill="none" fill-rule="evenodd">
        <g id="Main-Page" transform="translate(-130.000000, -62.000000)" fill="#12141E">
            <g id="Logo/Full/Dark" transform="translate(130.000000, 62.000000)">
                <g id="Logo">
                    <path d="M62.415,22.0661111 L62.415,14.4241667 L66.1397222,14.4241667 L66.1397222,22.37 C66.1397222,23.1611111 66.3830556,23.7952778 66.8702778,24.2736111 C67.3577778,24.7516667 67.9786111,24.9911111 68.7327778,24.9911111 C69.4680556,24.9911111 70.0752778,24.7469444 70.5536111,24.2597222 C71.0316667,23.7725 71.2708333,23.1422222 71.2708333,22.37 L71.2708333,14.4241667 L74.9952778,14.4241667 L74.9952778,22.0661111 C74.9952778,23.9422222 74.4019444,25.4691667 73.2158333,26.6458333 C72.0294444,27.8233333 70.5352778,28.4116667 68.7327778,28.4116667 C66.8933333,28.4116667 65.3811111,27.8277778 64.1947222,26.6594444 C63.0080556,25.4916667 62.415,23.9608333 62.415,22.0661111" id="Fill-1"></path>
                    <path d="M87.3238889,21.2663889 C87.3238889,20.1447222 86.9933333,19.2344444 86.3308333,18.5347222 C85.6691667,17.8366667 84.8225,17.4869444 83.7930556,17.4869444 C82.8,17.4869444 81.9763889,17.8180556 81.3238889,18.48 C80.6705556,19.1422222 80.3444444,20.0616667 80.3444444,21.2388889 C80.3444444,22.4161111 80.6705556,23.3402778 81.3238889,24.0108333 C81.9763889,24.6830556 82.8,25.0183333 83.7930556,25.0183333 C84.8041667,25.0183333 85.6458333,24.6691667 86.3172222,23.9697222 C86.9886111,23.2708333 87.3238889,22.37 87.3238889,21.2663889 Z M89.2136111,16.1488889 C90.4733333,17.5005556 91.1036111,19.1972222 91.1036111,21.2388889 C91.1036111,23.2802778 90.4733333,24.9861111 89.2136111,26.3563889 C87.9541667,27.7263889 86.3769444,28.4116667 84.4825,28.4116667 C82.7719444,28.4116667 81.4108333,27.86 80.3994444,26.7563889 L80.3994444,33.0461111 L76.6752778,33.0461111 L76.6752778,14.4241667 L80.0961111,14.4241667 L80.0961111,16.1352778 C81.0341667,14.7925 82.4961111,14.1211111 84.4825,14.1211111 C86.3769444,14.1211111 87.9541667,14.7966667 89.2136111,16.1488889 L89.2136111,16.1488889 Z" id="Fill-2"></path>
                    <path d="M96.2052778,19.8866667 L102.412778,19.8866667 C102.394167,19.0591667 102.104167,18.3925 101.543333,17.8866667 C100.981944,17.3811111 100.287778,17.1283333 99.4605556,17.1283333 C98.6697222,17.1283333 97.9797222,17.3763889 97.3913889,17.8730556 C96.8025,18.3691667 96.4072222,19.0411111 96.2052778,19.8866667 Z M105.777778,22.5075 L96.2052778,22.5075 C96.4258333,23.3725 96.8711111,24.0391667 97.5430556,24.5077778 C98.2138889,24.9772222 99.0466667,25.2116667 100.04,25.2116667 C101.381944,25.2116667 102.651111,24.7516667 103.846944,23.8316667 L105.391667,26.3702778 C103.755,27.7313889 101.933889,28.4116667 99.9291667,28.4116667 C97.8325,28.4480556 96.0533333,27.7630556 94.5911111,26.3563889 C93.1288889,24.9488889 92.4161111,23.2525 92.4533333,21.2663889 C92.4161111,19.2983333 93.1055556,17.6063889 94.5222222,16.1902778 C95.9380556,14.7738889 97.63,14.0844444 99.5986111,14.1211111 C101.474722,14.1211111 103.014722,14.7277778 104.219167,15.9419444 C105.423889,17.1558333 106.026389,18.6638889 106.026389,20.4666667 C106.026389,21.1280556 105.943333,21.8094444 105.777778,22.5075 L105.777778,22.5075 Z" id="Fill-3"></path>
                    <path d="M116.035833,14.4241667 L116.035833,17.7075 L115.0425,17.7075 C113.901944,17.7075 113.005278,18.0111111 112.353056,18.6180556 C111.699444,19.2247222 111.373611,20.1077778 111.373611,21.2663889 L111.373611,28.0805556 L107.649167,28.0805556 L107.649167,14.4241667 L111.070278,14.4241667 L111.070278,16.0519444 C112.026111,14.8569444 113.277222,14.2591667 114.821944,14.2591667 C115.281944,14.2591667 115.686667,14.3141667 116.035833,14.4241667" id="Fill-4"></path>
                    <path d="M126.5975,28.0805556 L130.321944,28.0805556 L130.321944,7.05833333 L126.5975,7.05833333 L126.5975,28.0805556 Z M124.818889,7.05833333 L124.818889,10.3966667 L123.921944,10.3966667 C123.0575,10.3966667 122.427222,10.5622222 122.032222,10.8933333 C121.636667,11.2238889 121.439167,11.7666667 121.439167,12.5208333 L121.439167,14.4241667 L124.818889,14.4241667 L124.818889,17.5694444 L121.439167,17.5694444 L121.439167,28.0805556 L117.714444,28.0805556 L117.714444,12.19 C117.714444,10.4980556 118.174444,9.22 119.094444,8.355 C120.013333,7.49111111 121.31,7.05833333 122.983889,7.05833333 L124.818889,7.05833333 L124.818889,7.05833333 Z" id="Fill-5"></path>
                    <path d="M132.136389,22.0661111 L132.136389,14.4241667 L135.861111,14.4241667 L135.861111,22.37 C135.861111,23.1611111 136.104444,23.7952778 136.591944,24.2736111 C137.079167,24.7516667 137.7,24.9911111 138.454444,24.9911111 C139.189722,24.9911111 139.796667,24.7469444 140.274722,24.2597222 C140.753056,23.7725 140.991944,23.1422222 140.991944,22.37 L140.991944,14.4241667 L144.716389,14.4241667 L144.716389,22.0661111 C144.716389,23.9422222 144.123611,25.4691667 142.936944,26.6458333 C141.750833,27.8233333 140.256111,28.4116667 138.454444,28.4116667 C136.614722,28.4116667 135.102222,27.8277778 133.916389,26.6594444 C132.729444,25.4916667 132.136389,23.9608333 132.136389,22.0661111" id="Fill-6"></path>
                    <polygon id="Fill-7" points="146.531111 28.0805556 150.255556 28.0805556 150.255556 14.4241667 146.531111 14.4241667"></polygon>
                    <path d="M162.018611,24.0247222 C162.670556,23.3627778 162.997778,22.4436111 162.997778,21.2663889 C162.997778,20.0891667 162.666667,19.165 162.004722,18.4936111 C161.342222,17.8222222 160.523889,17.4869444 159.549444,17.4869444 C158.537222,17.4869444 157.696111,17.8366667 157.024722,18.5347222 C156.353333,19.2344444 156.018056,20.1352778 156.018056,21.2388889 C156.018056,22.3611111 156.349167,23.2708333 157.011111,23.9697222 C157.673333,24.6691667 158.518889,25.0183333 159.549444,25.0183333 C160.5425,25.0183333 161.365,24.6872222 162.018611,24.0247222 Z M162.942778,7.05833333 L166.666667,7.05833333 L166.666667,28.0805556 L163.246111,28.0805556 L163.246111,26.3975 C162.308056,27.7402778 160.845556,28.4116667 158.859722,28.4116667 C156.946389,28.4116667 155.364722,27.7355556 154.114722,26.3838889 C152.863333,25.0322222 152.238611,23.3263889 152.238611,21.2663889 C152.238611,19.2066667 152.863333,17.5005556 154.114722,16.1488889 C155.364722,14.7966667 156.946389,14.1211111 158.859722,14.1211111 C160.587778,14.1211111 161.949167,14.6638889 162.942778,15.7488889 L162.942778,7.05833333 L162.942778,7.05833333 Z" id="Fill-8"></path>
                    <path d="M56.5891667,17.6244444 L54.52,16.7144444 C53.7105556,16.3469444 53.1544444,16.0202778 52.8511111,15.7344444 C52.5477778,15.45 52.3958333,15.0775 52.3958333,14.6177778 C52.3958333,14.5494444 52.4088889,14.4888889 52.4155556,14.4241667 L48.6294444,14.4241667 C48.6252778,14.5163889 48.6163889,14.6061111 48.6163889,14.7002778 C48.6163889,16.8891667 50.0875,18.6363889 53.0305556,19.9422222 L54.9888889,20.8247222 C55.9086111,21.2483333 56.5244444,21.6022222 56.8375,21.8869444 C57.1502778,22.1719444 57.3066667,22.5727778 57.3066667,23.0866667 C57.3066667,23.7127778 57.0763889,24.2041667 56.6169444,24.5630556 C56.1569444,24.9216667 55.5222222,25.1008333 54.7133333,25.1008333 C53.0208333,25.1008333 51.5311111,24.2177778 50.2438889,22.4525 L47.6783333,24.3833333 C48.3955556,25.6347222 49.3655556,26.6180556 50.5888889,27.3355556 C51.8116667,28.0530556 53.1866667,28.4116667 54.7133333,28.4116667 C56.5705556,28.4116667 58.0972222,27.9105556 59.2927778,26.9080556 C60.4880556,25.9055556 61.0861111,24.5861111 61.0861111,22.9491667 C61.0861111,21.735 60.7272222,20.7194444 60.0102778,19.9008333 C59.2927778,19.0825 58.1522222,18.3238889 56.5891667,17.6244444" id="Fill-9"></path>
                    <polyline id="Fill-10" points="61.0861111 9.00555556 55.6675 9.00555556 55.6675 11.715 58.3769444 11.715 58.3769444 14.4241667 61.0861111 14.4241667 61.0861111 9.00555556"></polyline>
                    <polygon id="Fill-11" points="150.255556 14.4241667 154.361111 14.4241667 154.361111 10.3183333 150.255556 10.3183333"></polygon>
                    <path d="M30.6977778,23.5061111 L23.4586111,23.5061111 L23.4586111,16.2669444 L16.2191667,16.2669444 L16.2191667,9.0275 L30.6977778,9.0275 L30.6977778,23.5061111 Z M8.98,30.7452778 L16.2191667,30.7452778 L16.2191667,23.5061111 L8.98,23.5061111 L8.98,30.7452778 Z M0,4.38416667 L0,35.3891667 C0,37.7838889 1.94138889,39.7255556 4.33638889,39.7255556 L35.3413889,39.7255556 C37.7363889,39.7255556 39.6777778,37.7838889 39.6777778,35.3891667 L39.6777778,4.38416667 C39.6777778,1.98916667 37.7363889,0.0477777778 35.3413889,0.0477777778 L4.33638889,0.0477777778 C1.94138889,0.0477777778 0,1.98916667 0,4.38416667 L0,4.38416667 Z" id="Fill-12"></path>
                </g>
            </g>
        </g>
    </g>
</svg>