<?xml version="1.0" encoding="utf-8"?>
<!-- Generator: Adobe Illustrator 26.0.3, SVG Export Plug-In . SVG Version: 6.00 Build 0)  -->
<svg version="1.0" id="katman_1" xmlns="http://www.w3.org/2000/svg" xmlns:xlink="http://www.w3.org/1999/xlink" x="0px" y="0px"
	 viewBox="0 0 600 450" style="enable-background:new 0 0 600 450;" xml:space="preserve">
<style type="text/css">
	.st0{fill:#8A92B2;}
	.st1{fill:#464A75;}
	.st2{fill:#808081;}
	.st3{fill:#636890;}
</style>
<g>
	<path class="st0" d="M300.3,41.6v135.3c0,0.6-0.6,1.2-1.2,1.2c-4.1,1.7-7.7,3.5-11.8,5.2c-5.3,2.3-11.2,4.6-16.5,7.5l-19.4,8.7
		l-15.9,7l-19.4,8.7c-5.3,2.3-10.6,4.6-16.5,7.5c-4.1,1.7-8.8,4.1-13,5.8c-0.6,0-0.6,0.6-1.2,0h-0.6c1.8-2.9,3.5-5.2,5.3-8.1
		c9.4-15.7,19.4-31.4,28.9-47c10-16.8,20.6-33.7,30.6-50.5c9.4-15.7,18.9-31.4,28.3-46.4c7.1-11.6,14.1-22.6,20.6-34.3
		C299.7,42.2,299.7,41.6,300.3,41.6C299.7,41.6,300.3,41.6,300.3,41.6L300.3,41.6z"/>
	<path class="st1" d="M414.6,228.6c-8.8,5.8-18.3,11-27.1,16.3c-28.9,16.8-57.2,33.1-86,49.9c-0.6,0-0.6,0.6-1.2,0.6
		c-0.6,0-0.6-0.6-0.6-0.6V293V179.8v-1.7c0-0.6,0.6-0.6,1.2-0.6c2.4,1.2,4.7,2.3,7.7,3.5c7.1,3.5,14.7,6.4,21.8,9.9
		c6.5,2.9,12.4,5.8,18.9,8.1c6.5,2.9,12.4,5.8,18.9,8.7c5.3,2.3,11.2,4.6,16.5,7.5c5.3,2.3,11.2,4.6,16.5,7.5
		c4.1,1.7,8.3,4.1,13,5.8C414,228,414,228.6,414.6,228.6z"/>
	<path class="st0" d="M300.3,409.1C300.3,409.1,299.7,409.1,300.3,409.1c-0.6,0-0.6,0-1.2-0.6c-11.8-16.3-23-31.9-34.8-48.2
		L229,311.6c-11.2-15.7-23-31.4-34.2-47.6l-8.8-12.2c0-0.6-0.6-0.6-0.6-1.2c0.6,0,0.6,0.6,1.2,0.6c15.9,9.3,32.4,18.6,48.3,27.9
		c18.3,11,37.1,21.5,55.4,32.5c2.9,1.7,6.5,3.5,9.4,5.2c0.6,0,0.6,0.6,0.6,1.2C300.3,318,300.3,409.1,300.3,409.1z"/>
	<path class="st2" d="M185.4,228.6C185.4,228.6,186,228.6,185.4,228.6C186,228.6,186,228.6,185.4,228.6
		C185.4,229.1,185.4,229.1,185.4,228.6z"/>
	<path class="st3" d="M186,229.1C186,228.6,186,228.6,186,229.1c5.9-2.9,11.8-5.2,17.7-8.1l23-10.5c5.9-2.9,11.8-5.2,17.7-8.1
		c8.2-4.1,17.1-7.5,25.3-11.6c5.9-2.3,11.8-5.2,17.7-7.5c4.1-1.7,8.2-3.5,12.4-5.8c0.6,0,0.6-0.6,1.2-0.6v118.4
		c-0.6,0.6-0.6,0-1.2,0c-1.8-1.2-3.5-1.7-4.7-2.9l-107.8-62.7C186.6,229.1,186,229.1,186,229.1L186,229.1z M414,250.6
		c0,0.6,0,0.6-0.6,1.2c-34.2,47.6-68.4,94.6-102.5,142.2c-3.5,5.2-7.1,9.9-10.6,15.1v-0.6v-1.2v-88.8v-1.7c7.7-4.6,15.3-9.3,23-13.4
		c30.1-17.4,60.1-34.8,90.2-52.3C413.4,250.6,414,250.6,414,250.6L414,250.6z"/>
	<path class="st3" d="M300.3,177.5v-1.2v-133v-1.2l113.1,184.6c0.6,0.6,1.2,1.2,1.2,1.7c-2.4-1.2-4.7-2.3-7.7-3.5
		c-2.9-1.2-5.9-2.9-8.8-4.1c-1.8-0.6-3.5-1.7-5.9-2.3c-2.9-1.2-6.5-2.9-9.4-4.1c-1.8-0.6-3.5-1.7-5.3-2.3l-12.4-5.2
		c-2.4-1.2-4.1-1.7-6.5-2.9c-2.9-1.2-5.9-2.9-8.8-4.1c-1.8-0.6-3.5-1.7-5.3-2.3l-12.4-5.2c-2.4-1.2-4.1-1.7-6.5-2.9
		c-2.9-1.2-5.9-2.9-8.8-4.1c-1.8-1.2-4.1-1.7-5.9-2.9L300.3,177.5L300.3,177.5z"/>
</g>
</svg>
